PathFileType	4	(X/Y/Z)	/Users/itak/Documents/Research/Walk-IL/dataset/trc/00574_00009.trc
DataRate	CameraRate	NumFrames	NumMarkers	Units	OrigDataRate	OrigDataStartFrame	OrigNumFrames
100.000000	100.000000	4	53	mm	100.000000	506	579
Frame#	Time	RPSI			LPSI			L3			STRN			T10			C7			CLAV			RBAK			LBAK			LSHO			LUPA			LAEL			LAOL			LWTS			LWPS			LFRA			LIFD			LHPS			LHTS			RSHO			RUPA			RAEL			RAOL			RWTS			RWPS			RFRA			RIFD			RHTS			RHPS			RBHD			LFHD			RFHD			LBHD			LHIP			RHIP			RASI			LASI			LKNE			LTHI			LANK			LTIP			LTOE			LMT1			LMT5			LHEE			RKNE			RTHI			RANK			RTIP			RTOE			RMT1			RMT5			RHEE			
		X1	Y1	Z1	X2	Y2	Z2	X3	Y3	Z3	X4	Y4	Z4	X5	Y5	Z5	X6	Y6	Z6	X7	Y7	Z7	X8	Y8	Z8	X9	Y9	Z9	X10	Y10	Z10	X11	Y11	Z11	X12	Y12	Z12	X13	Y13	Z13	X14	Y14	Z14	X15	Y15	Z15	X16	Y16	Z16	X17	Y17	Z17	X18	Y18	Z18	X19	Y19	Z19	X20	Y20	Z20	X21	Y21	Z21	X22	Y22	Z22	X23	Y23	Z23	X24	Y24	Z24	X25	Y25	Z25	X26	Y26	Z26	X27	Y27	Z27	X28	Y28	Z28	X29	Y29	Z29	X30	Y30	Z30	X31	Y31	Z31	X32	Y32	Z32	X33	Y33	Z33	X34	Y34	Z34	X35	Y35	Z35	X36	Y36	Z36	X37	Y37	Z37	X38	Y38	Z38	X39	Y39	Z39	X40	Y40	Z40	X41	Y41	Z41	X42	Y42	Z42	X43	Y43	Z43	X44	Y44	Z44	X45	Y45	Z45	X46	Y46	Z46	X47	Y47	Z47	X48	Y48	Z48	X49	Y49	Z49	X50	Y50	Z50	X51	Y51	Z51	X52	Y52	Z52	X53	Y53	Z53	

507	5.06	884.951171875	1009.389709472656	281.5142211914062	779.587890625	1013.91796875	200.3944091796875	832.462158203125	1105.488891601562	237.9828033447266	966.103759765625	1301.648193359375	59.08221054077148	824.2058715820312	1230.906494140625	251.5113677978516	862.1256103515625	1506.257568359375	232.616943359375	954.408447265625	1411.699584960938	80.79823303222656	889.0098876953125	1375.130859375	332.7010498046875	767.1624755859375	1455.799560546875	204.3860473632812	755.032958984375	1483.107666015625	77.41986083984375	685.0087280273438	1356.518432617188	37.81014633178711	671.3299560546875	1138.521240234375	-0.7594046592712402	676.431396484375	1124.163818359375	99.16883850097656	755.520263671875	900.5486450195312	-75.59377288818359	670.8847045898438	877.827880859375	-71.08982086181641	675.4132080078125	1053.965454101562	-29.35188674926758	751.27685546875	731.3796997070312	-78.90451812744141	682.0850830078125	818.0684814453125	-77.68874359130859	745.0867919921875	824.1807861328125	-103.0537338256836	1021.654602050781	1464.16845703125	274.9732666015625	1064.621948242188	1397.10302734375	327.0672912597656	1094.1083984375	1107.486938476562	354.8760986328125	1038.359008789062	1092.584106445312	382.713134765625	1145.22314453125	888.8413696289062	222.323486328125	1166.3759765625	866.2750854492188	298.9584655761719	1105.669921875	1052.098876953125	351.0548400878906	1154.198974609375	716.1661376953125	211.78076171875	1174.581909179688	798.2550659179688	208.2802734375	1175.395385742188	792.6135864257812	281.9710388183594	971.1563720703125	1687.92578125	217.5089721679688	934.01904296875	1719.074951171875	14.70412063598633	1048.184448242188	1710.939331054688	102.1032257080078	842.9262084960938	1696.144287109375	109.3015670776367	754.9795532226562	945.1302490234375	15.01776695251465	1056.00341796875	937.4383544921875	258.025634765625	1065.47998046875	973.748046875	153.2274932861328	844.2888793945312	972.5430297851562	-13.15939426422119	827.5133666992188	503.7220764160156	-12.87477588653564	795.458984375	670.113037109375	-17.0207691192627	746.4065551757812	36.61045455932617	64.58328247070312	768.5896606445312	258.54736328125	36.75764846801758	925.0189208984375	42.07657623291016	-62.92970275878906	906.2384643554688	44.96636199951172	15.48152351379395	813.0932006835938	39.01114654541016	-39.16059875488281	747.3302001953125	38.35177993774414	152.6138153076172	1006.537780761719	497.8888549804688	200.7215270996094	1067.8134765625	783.2788696289062	218.9017791748047	896.6844482421875	40.61064147949219	254.4759979248047	983.1388549804688	356.0637512207031	194.5131378173828	1007.03564453125	41.06653594970703	59.23880386352539	935.0804443359375	43.95218276977539	83.29338073730469	998.007568359375	40.17942810058594	167.7528381347656	820.0961303710938	37.09499359130859	261.5301208496094	
508	5.07	885.3301391601562	1009.435119628906	280.0797119140625	780.0093994140625	1014.154357910156	198.9458923339844	833.0567626953125	1105.439086914062	236.6230163574219	966.6716918945312	1301.612548828125	57.87197494506836	824.7459716796875	1230.835693359375	250.1998138427734	862.6879272460938	1506.222534179688	231.4851531982422	954.9093627929688	1411.65869140625	79.61121368408203	889.5999145507812	1375.078857421875	331.4790954589844	767.7369384765625	1455.690673828125	203.2680206298828	755.495361328125	1483.022583007812	76.32845306396484	685.364501953125	1356.470581054688	36.76815795898438	671.335205078125	1138.52490234375	-1.862278461456299	676.7656860351562	1124.11865234375	98.04656982421875	754.5936889648438	900.1947021484375	-76.77600860595703	669.8656616210938	877.8158569335938	-72.03372192382812	675.14697265625	1053.946533203125	-30.43681335449219	749.6522216796875	731.0419311523438	-79.96631622314453	680.7763671875	818.0048828125	-78.59462738037109	743.7434692382812	823.8377075195312	-104.1400527954102	1022.253295898438	1464.147338867188	273.7295227050781	1065.182006835938	1397.1083984375	325.8700866699219	1093.776123046875	1107.40234375	354.4446411132812	1037.899536132812	1093.117065429688	382.3569946289062	1143.360717773438	887.0267944335938	223.9378967285156	1164.580444335938	865.2069091796875	300.7984313964844	1105.0390625	1051.956176757812	351.0406188964844	1150.764282226562	714.1094360351562	215.5292358398438	1171.820190429688	795.962890625	210.9059143066406	1172.90478515625	791.2389526367188	284.6515197753906	971.48876953125	1687.988037109375	216.2590942382812	934.2265014648438	1719.113403320312	13.49880504608154	1048.443481445312	1711.066650390625	100.850700378418	843.1661987304688	1696.059326171875	108.2322463989258	755.3936157226562	945.316162109375	13.60169219970703	1056.292114257812	937.26123046875	256.6595458984375	1065.947998046875	973.5242309570312	151.9065856933594	844.762939453125	972.5392456054688	-14.54385852813721	826.9448852539062	503.6890258789062	-12.8141450881958	795.2701416015625	670.1034545898438	-17.51982879638672	746.4141235351562	36.45679092407227	64.55463409423828	768.23876953125	258.4963073730469	36.80162048339844	924.9808349609375	42.03089904785156	-63.00604248046875	906.202880859375	44.97861862182617	15.4230785369873	812.9833984375	38.9068489074707	-39.24458694458008	747.3003540039062	38.33855438232422	152.5813751220703	1006.490173339844	497.7663269042969	200.0684967041016	1068.062377929688	783.0308837890625	218.0160217285156	896.6281127929688	40.61670684814453	254.4316558837891	983.0031127929688	355.9375610351562	194.0695037841797	1007.0185546875	41.07303237915039	59.18267822265625	935.0197143554688	43.89977264404297	83.25563812255859	997.8643798828125	40.2021484375	167.7122497558594	820.0328369140625	37.01177215576172	261.5090026855469	
509	5.08	885.6461791992188	1009.460083007812	278.6823120117188	780.356689453125	1014.383911132812	197.5170593261719	833.5817260742188	1105.387817382812	235.3088989257812	967.202880859375	1301.562622070312	56.67733383178711	825.2422485351562	1230.779296875	248.8998718261719	863.2328491210938	1506.187133789062	230.3565979003906	955.38330078125	1411.600341796875	78.43149566650391	890.1693725585938	1375.035034179688	330.2775268554688	768.2911987304688	1455.598266601562	202.1658630371094	755.9345703125	1482.938110351562	75.24820709228516	685.6912231445312	1356.423950195312	35.74323272705078	671.3287353515625	1138.530029296875	-2.950054407119751	677.0648193359375	1124.079711914062	96.93397521972656	753.7005004882812	899.8768920898438	-77.96714782714844	668.9089965820312	877.8291015625	-73.00746154785156	674.8788452148438	1053.94189453125	-31.50839805603027	748.0978393554688	730.7470703125	-81.07504272460938	679.5201416015625	817.961181640625	-79.53218841552734	742.442626953125	823.5389404296875	-105.2398910522461	1022.8349609375	1464.116333007812	272.4848022460938	1065.739379882812	1397.107055664062	324.6698608398438	1093.4912109375	1107.3310546875	353.9765930175781	1037.5126953125	1093.614624023438	381.9583740234375	1141.49658203125	885.2639770507812	225.4737243652344	1162.870239257812	864.2050170898438	302.5423889160156	1104.482177734375	1051.838256835938	350.9564208984375	1147.324829101562	712.1306762695312	219.2518463134766	1169.046875	793.7378540039062	213.4374847412109	1170.490600585938	789.9443969726562	287.2373657226562	971.8280639648438	1688.032592773438	215.0061340332031	934.4434204101562	1719.15087890625	12.28876209259033	1048.722290039062	1711.171752929688	99.60277557373047	843.42578125	1695.9697265625	107.1729736328125	755.7816162109375	945.4909057617188	12.20098781585693	1056.53271484375	937.0880737304688	255.3353424072266	1066.36572265625	973.3057861328125	150.6361541748047	845.209228515625	972.5266723632812	-15.90398693084717	826.3931884765625	503.6571655273438	-12.80585098266602	795.0480346679688	670.0806274414062	-18.00289916992188	746.4243774414062	36.30029296875	64.53751373291016	767.9074096679688	258.4479675292969	36.82805633544922	924.9491577148438	41.98311996459961	-63.08377456665039	906.1683959960938	44.99253463745117	15.35453414916992	812.8660888671875	38.80945587158203	-39.31812286376953	747.275146484375	38.33699417114258	152.5470581054688	1006.442199707031	497.6499938964844	199.4175872802734	1068.281005859375	782.8047485351562	217.1510467529297	896.5689086914062	40.62854385375977	254.3838043212891	982.8606567382812	355.8159484863281	193.6265106201172	1007.003723144531	41.07864379882812	59.12543869018555	934.9642944335938	43.84779357910156	83.21965026855469	997.7318725585938	40.22733306884766	167.6730651855469	819.9701538085938	36.92692565917969	261.4812927246094	
510	5.09	885.9114379882812	1009.470153808594	277.3214416503906	780.6426391601562	1014.605773925781	196.114013671875	834.0386962890625	1105.335571289062	234.0322723388672	967.69482421875	1301.504272460938	55.50124740600586	825.7002563476562	1230.740844726562	247.6204528808594	863.7528686523438	1506.156005859375	229.2272338867188	955.8316650390625	1411.531860351562	77.26138305664062	890.7175903320312	1375.005126953125	329.1010131835938	768.8190307617188	1455.525634765625	201.0753173828125	756.3516845703125	1482.863037109375	74.18035125732422	685.9923706054688	1356.3857421875	34.72944641113281	671.3217163085938	1138.544067382812	-4.02731990814209	677.3274536132812	1124.062255859375	95.82827758789062	752.8463745117188	899.5986938476562	-79.15851593017578	668.0191040039062	877.8687133789062	-73.99948120117188	674.6151123046875	1053.956298828125	-32.56558609008789	746.6204833984375	730.4950561523438	-82.20957946777344	678.3333740234375	817.9429321289062	-80.49893951416016	741.19873046875	823.2867431640625	-106.3453063964844	1023.395263671875	1464.083129882812	271.2479553222656	1066.283203125	1397.106567382812	323.4766845703125	1093.240966796875	1107.278442382812	353.46923828125	1037.186279296875	1094.08447265625	381.5237121582031	1139.651733398438	883.5704345703125	226.9346466064453	1161.251220703125	863.2808837890625	304.1825561523438	1103.984375	1051.749633789062	350.8084411621094	1143.933837890625	710.25244140625	222.9111328125	1166.302978515625	791.60498046875	215.8679656982422	1168.170288085938	788.7444458007812	289.7184753417969	972.1748657226562	1688.064697265625	213.7517242431641	934.6636352539062	1719.185913085938	11.07505798339844	1049.019897460938	1711.26171875	98.35292816162109	843.7155151367188	1695.88232421875	106.1153945922852	756.1371459960938	945.6541137695312	10.82492065429688	1056.735229492188	936.9237670898438	254.0506896972656	1066.738037109375	973.10205078125	149.4012451171875	845.6246337890625	972.5130615234375	-17.24090194702148	825.86865234375	503.6268310546875	-12.82871532440186	794.8136596679688	670.048095703125	-18.46922874450684	746.4357299804688	36.15830993652344	64.53314971923828	767.6024780273438	258.4054870605469	36.85150527954102	924.9285278320312	41.93542861938477	-63.15853881835938	906.1400146484375	45.00732421875	15.28181552886963	812.7557983398438	38.72095489501953	-39.37914276123047	747.25732421875	38.34632873535156	152.5152130126953	1006.391174316406	497.5431518554688	198.7786407470703	1068.475952148438	782.60400390625	216.2945251464844	896.510009765625	40.64280700683594	254.3387145996094	982.7156372070312	355.7047729492188	193.19482421875	1006.989440917969	41.08503341674805	59.07221221923828	934.9153442382812	43.79923629760742	83.18704986572266	997.6152954101562	40.25445938110352	167.6371307373047	819.9100952148438	36.84354400634766	261.4514465332031	
